# xmcd
#
# Track frame offsets: 
#        150
#        14823
#        31971
#        49569
#        71742
#        90540
#        113988
#        131061
#        148584
#        167832
#        194580
#
# Disc length: 3538 seconds
#
# Revision: 0
# Processed by: cddbd v1.5.2PL0 Copyright (c) Steve Scherf et al.
# Submitted via: ExactAudioCopy v0.99pb4
#
DISCID=a10dd00b
DTITLE=Blindstone - Freedom's Calling
DYEAR=2008
DGENRE=Blues/Rock
TTITLE0=Freedom's Calling
TTITLE1=Can't Be With You
TTITLE2=Fear 
TTITLE3=Good Time 
TTITLE4=She's So Pretty 
TTITLE5=Sugar Room
TTITLE6=Waste A Little Time On Me
TTITLE7=I'd Quit
TTITLE8=Hang Onto My Love
TTITLE9=Had Enough 
TTITLE10=Freedom's Calling 
EXTD=
EXTT0=
EXTT1=
EXTT2=
EXTT3=
EXTT4=
EXTT5=
EXTT6=
EXTT7=
EXTT8=
EXTT9=
EXTT10=
PLAYORDER=
